<svg width="88" height="59" viewBox="0 0 88 59" fill="none" xmlns="http://www.w3.org/2000/svg">
<path fill-rule="evenodd" clip-rule="evenodd" d="M68.5422 19.6667C79.2978 19.6667 88 28.5167 88 39.3333C88 50.15 79.2 59 68.4444 59C57.6889 59 48.8889 50.15 48.8889 39.3333C48.8889 17.6017 66.3911 0 88 0C88 0 75.1911 4.81833 68.5422 19.6667ZM39.1111 39.3333C39.1111 50.15 30.3111 59 19.5556 59C8.8 59 0 50.15 0 39.3333C0 17.6017 17.5022 0 39.1111 0C39.1111 0 26.3022 4.81833 19.6533 19.6667C30.4089 19.6667 39.1111 28.5167 39.1111 39.3333Z" fill="#DDDDDD"/>
</svg>
